HIERARCHY
ROOT Pelvis
{
	OFFSET 0.000000 0.000000 0.000000
	CHANNELS 6 Xposition Yposition Zposition Xrotation Yrotation Zrotation
	JOINT LeftUpLeg_virtual
	{
		OFFSET 0.000000 0.000000 0.000000
		CHANNELS 3 Xrotation Yrotation Zrotation
		JOINT LeftUpLeg
		{
			OFFSET 18.735201 -5.666702 -4.541200
			CHANNELS 3 Xrotation Yrotation Zrotation
			JOINT LeftLeg
			{
				OFFSET -0.021200 -31.938179 0.493100
				CHANNELS 3 Xrotation Yrotation Zrotation
				JOINT LeftFoot
				{
					OFFSET 0.021200 -31.938179 -4.336299
					CHANNELS 3 Xrotation Yrotation Zrotation
					JOINT LeftToeBase
					{
						OFFSET 0.943001 -26.722000 15.023500
						CHANNELS 3 Xrotation Yrotation Zrotation
						End Site
						{
							OFFSET 0 0 0
						}
					}
				}
			}
		}
	}
	JOINT RightUpLeg_virtual
	{
		OFFSET 0.000000 0.000000 0.000000
		CHANNELS 3 Xrotation Yrotation Zrotation
		JOINT RightUpLeg
		{
			OFFSET -18.735201 -5.666702 -4.541200
			CHANNELS 3 Xrotation Yrotation Zrotation
			JOINT RightLeg
			{
				OFFSET 0.018946 -31.938133 0.493100
				CHANNELS 3 Xrotation Yrotation Zrotation
				JOINT RightFoot
				{
					OFFSET -0.018946 -31.938126 -4.336299
					CHANNELS 3 Xrotation Yrotation Zrotation
					JOINT RightToeBase
					{
						OFFSET -0.943001 -26.722004 15.023500
						CHANNELS 3 Xrotation Yrotation Zrotation
						End Site
						{
							OFFSET 0 0 0
						}
					}
				}
			}
		}
	}
	JOINT Hips_virtual
	{
		OFFSET 0.000000 0.000000 0.000000
		CHANNELS 3 Xrotation Yrotation Zrotation
		JOINT Hips
		{
			OFFSET -0.000000 -0.000000 -0.000000
			CHANNELS 3 Xrotation Yrotation Zrotation
			JOINT Spine
			{
				OFFSET 0.000000 10.199997 -0.299500
				CHANNELS 3 Xrotation Yrotation Zrotation
				JOINT Spine1
				{
					OFFSET 0.000000 11.900002 -1.516600
					CHANNELS 3 Xrotation Yrotation Zrotation
					JOINT Spine2
					{
						OFFSET 0.000000 13.600006 -2.842500
						CHANNELS 3 Xrotation Yrotation Zrotation
						JOINT Neck_virtual
						{
							OFFSET 0.000000 0.000000 0.000000
							CHANNELS 3 Xrotation Yrotation Zrotation
							JOINT Neck
							{
								OFFSET 0.000000 9.624100 -2.890100
								CHANNELS 3 Xrotation Yrotation Zrotation
								JOINT Head
								{
									OFFSET 0.000000 14.068802 -1.351900
									CHANNELS 3 Xrotation Yrotation Zrotation
									End Site
									{
										OFFSET 0 0 0
									}
								}
							}
						}
						JOINT LeftShoulder_virtual
						{
							OFFSET 0.000000 0.000000 0.000000
							CHANNELS 3 Xrotation Yrotation Zrotation
							JOINT LeftShoulder
							{
								OFFSET 15.263000 10.923401 -0.547700
								CHANNELS 3 Xrotation Yrotation Zrotation
								JOINT LeftArm
								{
									OFFSET 25.438599 -2.830597 -13.032500
									CHANNELS 3 Xrotation Yrotation Zrotation
									JOINT LeftForeArm
									{
										OFFSET 29.960503 0.000000 0.000000
										CHANNELS 3 Xrotation Yrotation Zrotation
										JOINT LeftHand
										{
											OFFSET 27.849251 0.000000 0.000000
											CHANNELS 3 Xrotation Yrotation Zrotation
											End Site
											{
												OFFSET 0 0 0
											}
										}
									}
								}
							}
						}
						JOINT RightShoulder_virtual
						{
							OFFSET 0.000000 0.000000 0.000000
							CHANNELS 3 Xrotation Yrotation Zrotation
							JOINT RightShoulder
							{
								OFFSET -15.263000 10.923401 -0.547700
								CHANNELS 3 Xrotation Yrotation Zrotation
								JOINT RightArm
								{
									OFFSET -25.438599 -2.830597 -13.032500
									CHANNELS 3 Xrotation Yrotation Zrotation
									JOINT RightForeArm
									{
										OFFSET -29.960503 0.000000 0.000000
										CHANNELS 3 Xrotation Yrotation Zrotation
										JOINT RightHand
										{
											OFFSET -27.849251 0.000000 0.000000
											CHANNELS 3 Xrotation Yrotation Zrotation
											End Site
											{
												OFFSET 0 0 0
											}
										}
									}
								}
							}
						}
					}
				}
			}
		}
	}
}
MOTION
Frames: 6
Frame Time: 0.03333333
-2.470972 92.316574 -49.558174 0.000000 0.000000 0.000000 167.250501 -67.231102 167.037645 -33.804444 5.346646 18.747575 43.436141 -2.384232 -2.476561 -8.954135 1.465381 -4.818181 0.000000 0.000000 0.000000 167.250501 -67.231102 167.037645 -13.976376 -13.321982 8.900667 23.483859 8.832276 0.608548 -12.529447 0.512375 -12.377913 0.000000 0.000000 0.000000 167.250501 -67.231102 167.037645 0.000000 -0.000002 0.000000 4.604228 1.460218 4.150998 -5.164934 2.150013 -2.923069 0.000000 0.000000 0.000000 -5.019356 1.931779 -3.197912 0.493624 4.858321 1.977117 0.000000 0.000000 0.000000 -5.019356 1.931779 -3.197912 1.072967 -0.392545 0.398384 6.971154 0.203092 -68.561507 7.857135 -19.444661 -8.492498 0.000000 0.000000 0.000000 -5.019356 1.931779 -3.197912 2.343093 -3.462319 16.741309 13.478341 29.342732 51.853556 13.446233 26.386576 -0.605796 0.000000 0.000000 0.000000 
-2.967309 92.342690 -51.443970 0.000000 0.000000 0.000000 169.977508 -61.367228 170.001660 -34.630043 -1.564678 14.007184 43.040563 -2.293556 -2.341400 -7.171374 2.200647 -7.191596 0.000000 0.000000 0.000000 169.977508 -61.367228 170.001660 -13.516744 -11.024881 9.754859 22.775927 13.350919 1.743031 -11.084145 -0.401593 -14.757529 0.000000 0.000000 0.000000 169.977508 -61.367228 170.001660 0.000000 0.000000 0.000000 5.162303 2.019706 4.023363 -5.105463 2.660220 -2.985251 0.000000 0.000000 0.000000 -4.948699 2.420738 -3.321704 0.524781 4.488478 2.004502 0.000000 0.000000 0.000000 -4.948699 2.420738 -3.321704 1.084987 -0.270531 0.764947 7.759413 1.002645 -69.954552 9.038371 -17.908092 -8.643467 0.000000 0.000000 0.000000 -4.948699 2.420738 -3.321704 2.402569 -3.497409 16.751802 12.583212 31.110911 52.037760 13.766163 26.236987 -1.171561 0.000000 0.000000 0.000000 
-3.541378 92.364700 -53.442665 0.000000 0.000000 0.000000 171.860988 -55.602378 172.145110 -35.709165 -8.273924 9.296674 40.648932 -2.289223 -2.119557 -4.989002 2.795260 -8.645420 0.000000 0.000000 0.000000 171.860988 -55.602378 172.145110 -12.911746 -8.799924 10.422378 22.246537 17.632197 2.850535 -9.779567 -1.204536 -16.907700 0.000000 0.000000 0.000000 171.860988 -55.602378 172.145110 0.000000 0.000000 0.000000 5.548572 2.422218 3.454652 -4.780149 2.924335 -2.745297 0.000000 0.000000 0.000000 -4.630334 2.689124 -3.101843 0.481851 3.962432 1.827893 0.000000 0.000000 0.000000 -4.630334 2.689124 -3.101843 1.095807 -0.075117 0.979791 7.590611 1.535498 -71.647387 10.023776 -14.552000 -9.196448 0.000000 0.000000 0.000000 -4.630334 2.689124 -3.101843 2.421330 -3.425015 16.328213 10.845200 33.443881 52.653635 13.606739 25.436920 -1.713353 0.000000 0.000000 0.000000 
-4.144488 92.342094 -55.498428 0.000000 0.000000 0.000000 173.227367 -49.850856 173.752390 -37.589557 -13.420630 5.409888 37.203938 -3.754132 -1.934309 -2.236352 3.234388 -10.288498 0.000000 0.000000 0.000000 173.227367 -49.850856 173.752390 -12.304876 -6.720741 10.906845 22.042842 21.761597 3.895094 -8.684247 -1.796352 -18.865616 0.000000 0.000000 0.000000 173.227367 -49.850856 173.752390 0.000000 0.000001 0.000000 5.879819 2.748909 2.712128 -4.340192 3.082389 -2.375848 0.000000 0.000000 0.000000 -4.206304 2.861850 -2.734080 0.360980 3.251075 1.519647 0.000000 0.000000 0.000000 -4.206304 2.861850 -2.734080 1.107253 0.303897 0.807197 7.408449 2.071013 -72.955177 10.915618 -11.563092 -9.734071 0.000000 0.000000 0.000000 -4.206304 2.861850 -2.734080 2.431052 -3.326008 15.793146 8.839845 35.899259 53.578142 13.326702 24.465258 -2.246125 0.000000 0.000000 0.000000 
-4.738612 92.295570 -57.599190 0.000000 0.000000 0.000000 174.256977 -44.092884 175.009855 -39.049889 -15.983288 2.763178 32.322835 -7.146130 -1.853747 0.396283 3.521047 -11.464215 0.000000 0.000000 0.000000 174.256977 -44.092884 175.009855 -11.665247 -4.836549 11.202698 22.056691 25.766593 4.849531 -7.715704 -2.098357 -20.648427 0.000000 0.000000 0.000000 174.256977 -44.092884 175.009855 0.000000 0.000002 0.000000 6.176747 3.017650 1.848354 -3.823017 3.170196 -1.918939 0.000000 0.000000 0.000000 -3.711999 2.972067 -2.266647 0.320229 2.565973 1.258954 0.000000 0.000000 0.000000 -3.711999 2.972067 -2.266647 1.128073 0.848204 0.264308 7.633047 2.661690 -73.734911 11.313421 -9.654536 -10.121440 0.000000 0.000000 0.000000 -3.711999 2.972067 -2.266647 2.440282 -3.221734 15.234366 6.725008 38.339098 54.763760 13.038079 23.453599 -2.773346 0.000000 0.000000 0.000000 
-5.349871 92.091873 -59.807266 0.000000 0.000000 0.000000 174.989119 -38.561547 175.855460 -40.421387 -18.034811 0.765250 27.065596 -9.384581 -1.684355 5.046583 3.545622 -14.026309 0.000000 0.000000 0.000000 174.989119 -38.561547 175.855460 -11.073113 -3.295083 11.470210 22.669886 29.602921 5.663785 -7.189894 -2.115754 -22.475228 0.000000 0.000000 0.000000 174.989119 -38.561547 175.855460 0.000000 -0.000002 0.000000 6.495092 3.253782 1.119553 -3.332909 3.215105 -1.491993 0.000000 0.000000 0.000000 -3.245039 3.039649 -1.825541 0.463746 1.979937 1.052391 0.000000 0.000000 0.000000 -3.245039 3.039649 -1.825541 1.160116 1.423509 -0.352705 8.211015 3.231020 -74.239833 11.193045 -8.407383 -10.459077 0.000000 0.000000 0.000000 -3.245039 3.039649 -1.825541 2.449879 -3.114359 14.659353 4.548031 40.712309 56.200029 12.752600 22.436091 -3.289725 0.000000 0.000000 0.000000 
